#!OML:ASF I:\golf\golf\golf 2\Subject 1\2002-09-07\Subject1.ASF
:FULLY-SPECIFIED
:DEGREES
175
root 0.0298457 17.8285 -5.17597 14.317 -1.08674 -2.54522
lowerback 5.13123 2.6097 -4.78157
upperback 5.61462 3.26389 4.52777
thorax 2.43021 1.39153 7.31865
lowerneck -15.5067 0.431082 0.413531
upperneck 40.0468 3.39361 -6.65945
head 17.5103 0.566957 -2.47118
rclavicle 2.38542e-015 2.54444e-014
rhumerus -9.21565 12.0104 -81.6014
rradius 29.5161
rwrist -11.0521
rhand -27.9356 17.5494
rfingers 7.12502
rthumb -1.32373 -12.4262
lclavicle 2.38542e-015 2.54444e-014
lhumerus -26.6205 0.85507 89.3687
lradius 33.7031
lwrist 11.4945
lhand -17.3703 30.1791
lfingers 7.12502
lthumb 8.87807 59.9724
rfemur -16.2866 -5.57938 25.2925
rtibia 34.0288
rfoot -19.0736 -9.54083
rtoes -3.74233
lfemur -36.5364 1.77012 -11.7127
ltibia 19.6184
lfoot -0.498794 -2.49582
ltoes -16.9358
176
root 0.0748716 17.8131 -5.12609 14.2929 -1.19861 -2.62235
lowerback 5.40687 2.63402 -4.80149
upperback 5.76615 3.28424 4.54445
thorax 2.43076 1.39612 7.33943
lowerneck -15.5134 0.452136 0.350384
upperneck 39.9377 3.40947 -6.59276
head 17.4477 0.572559 -2.42071
rclavicle 4.8901e-014 2.70347e-014
rhumerus -8.85496 12.2908 -81.5775
rradius 29.7354
rwrist -11.2593
rhand -28.0203 17.2358
rfingers 7.12502
rthumb -1.4055 -12.7393
lclavicle 4.8901e-014 2.70347e-014
lhumerus -26.636 -0.129831 89.8084
lradius 34.4209
lwrist 12.0956
lhand -18.0078 29.5625
lfingers 7.12502
lthumb 8.26284 59.381
rfemur -16.7476 -6.07584 25.1733
rtibia 35.2399
rfoot -19.0203 -9.01434
rtoes -2.69427
lfemur -36.7618 2.15066 -11.8767
ltibia 20.3779
lfoot -0.31196 -3.03995
ltoes -16.1872
177
root 0.121195 17.7998 -5.07307 14.2763 -1.39922 -2.77144
lowerback 5.60307 2.61862 -4.82519
upperback 5.95767 3.25275 4.61814
thorax 2.52349 1.36877 7.43171
lowerneck -15.5334 0.510414 0.219554
upperneck 39.8579 3.53207 -6.58893
head 17.4144 0.601182 -2.36909
rclavicle -1.23246e-014 -2.38542e-014
rhumerus -8.46022 12.8321 -81.5379
rradius 29.9768
rwrist -11.404
rhand -28.1404 17.1625
rfingers 7.12502
rthumb -1.52154 -12.8118
lclavicle -1.23246e-014 -2.38542e-014
lhumerus -26.6735 -1.00046 90.2732
lradius 35.2481
lwrist 12.8247
lhand -18.8735 28.5377
lfingers 7.12502
lthumb 7.4273 58.3873
rfemur -17.2339 -6.48808 25.077
rtibia 36.4901
rfoot -18.8977 -8.30253
rtoes -1.22696
lfemur -37.0033 2.60242 -11.9911
ltibia 21.1958
lfoot -0.404833 -3.65706
ltoes -15.6352
178
root 0.167801 17.791 -5.02003 14.3025 -1.61781 -2.85108
lowerback 5.79014 2.60197 -4.88183
upperback 6.09919 3.21989 4.64099
thorax 2.57035 1.34352 7.4873
lowerneck -15.4595 0.578894 0.170191
upperneck 39.7486 3.67435 -6.67484
head 17.3457 0.640201 -2.36803
rclavicle 1.82882e-014 8.74653e-015
rhumerus -8.12772 13.3663 -81.5516
rradius 30.2144
rwrist -11.5244
rhand -28.3605 17.1993
rfingers 7.12502
rthumb -1.73413 -12.7734
lclavicle 1.82882e-014 8.74653e-015
lhumerus -26.9924 -2.15891 90.7498
lradius 36.4629
lwrist 13.7375
lhand -19.7508 27.6929
lfingers 7.12502
lthumb 6.58035 57.5707
rfemur -17.8115 -6.92166 24.8999
rtibia 37.8111
rfoot -18.6908 -7.66601
rtoes -1.50594
lfemur -37.2952 3.15395 -12.2627
ltibia 22.0096
lfoot -0.518671 -4.33505
ltoes -15.0837
179
root 0.218913 17.7842 -4.96899 14.3187 -1.91706 -2.90358
lowerback 6.00332 2.63086 -4.90016
upperback 6.2288 3.24844 4.60803
thorax 2.58437 1.353 7.45576
lowerneck -15.3693 0.648215 0.18325
upperneck 39.6883 3.79464 -6.74762
head 17.2995 0.681948 -2.37853
rclavicle -1.82882e-014 -1.27222e-014
rhumerus -7.74322 13.5407 -81.6063
rradius 30.3446
rwrist -11.6308
rhand -28.3262 17.0738
rfingers 7.12502
rthumb -1.70094 -12.8991
lclavicle -1.82882e-014 -1.27222e-014
lhumerus -27.3893 -3.4495 91.2267
lradius 37.8604
lwrist 14.5344
lhand -20.5299 27.3071
lfingers 7.12502
lthumb 5.82822 57.2069
rfemur -18.4547 -7.44143 24.6711
rtibia 39.2342
rfoot -18.3591 -6.98252
rtoes -3.2203
lfemur -37.5379 3.68694 -12.5719
ltibia 22.7866
lfoot -0.484389 -4.87841
ltoes -14.2206
180
root 0.272649 17.7779 -4.91769 14.2163 -2.33939 -2.88924
lowerback 6.32416 2.7344 -5.00796
upperback 6.4039 3.36885 4.54877
thorax 2.56902 1.40559 7.43857
lowerneck -15.3375 0.69932 0.248591
upperneck 39.7077 3.88358 -6.83501
head 17.3128 0.715656 -2.41522
rclavicle -1.23246e-014 -3.97569e-015
rhumerus -7.33497 13.4829 -81.6586
rradius 30.3813
rwrist -11.6374
rhand -28.2018 17.0743
rfingers 7.12502
rthumb -1.58084 -12.8996
lclavicle -1.23246e-014 -3.97569e-015
lhumerus -27.6763 -4.74976 91.7141
lradius 39.151
lwrist 15.1814
lhand -21.4352 26.7403
lfingers 7.12502
lthumb 4.95416 56.6624
rfemur -19.0648 -7.9306 24.2998
rtibia 40.8101
rfoot -17.8502 -6.07812
rtoes -4.68012
lfemur -37.6143 4.194 -12.9598
ltibia 23.4976
lfoot -0.487586 -5.32089
ltoes -13.283
181
root 0.323841 17.7716 -4.87171 14.1118 -2.70928 -2.81893
lowerback 6.75255 2.85951 -5.11162
upperback 6.54715 3.51412 4.42177
thorax 2.46026 1.47656 7.33719
lowerneck -15.2641 0.706409 0.386576
upperneck 39.6915 3.87722 -6.92172
head 17.2896 0.723398 -2.48038
rclavicle -1.07344e-014 -1.66979e-014
rhumerus -7.07513 13.3528 -81.7921
rradius 30.5327
rwrist -11.5878
rhand -28.1806 17.1728
rfingers 7.12502
rthumb -1.56031 -12.8013
lclavicle -1.07344e-014 -1.66979e-014
lhumerus -28.004 -6.28778 92.1261
lradius 40.5924
lwrist 15.7074
lhand -22.2889 25.9526
lfingers 7.12502
lthumb 4.12981 55.8923
rfemur -19.8199 -8.33178 23.8685
rtibia 42.5747
rfoot -17.1881 -5.13776
rtoes -5.38349
lfemur -37.6873 4.57401 -13.387
ltibia 24.1245
lfoot -0.433266 -5.70099
ltoes -12.5984
182
root 0.37306 17.7646 -4.83317 14.1714 -3.04024 -2.76546
lowerback 7.07654 2.97476 -5.1761
upperback 6.6662 3.65101 4.28038
thorax 2.38864 1.5443 7.20159
lowerneck -15.2271 0.682774 0.480473
upperneck 39.6093 3.81908 -6.96898
head 17.2329 0.708699 -2.52582
rclavicle 1.94809e-014 1.27222e-014
rhumerus -6.79946 13.3213 -81.9014
rradius 30.7851
rwrist -11.7149
rhand -28.1986 17.2911
rfingers 7.12502
rthumb -1.57771 -12.6828
lclavicle 1.94809e-014 1.27222e-014
lhumerus -28.3086 -7.91065 92.5208
lradius 42.2933
lwrist 16.0776
lhand -22.9632 26.0862
lfingers 7.12502
lthumb 3.47864 56.0375
rfemur -20.9255 -8.71255 23.5024
rtibia 44.5263
rfoot -16.375 -4.27957
rtoes -5.5384
lfemur -37.8918 4.84221 -13.7614
ltibia 24.6625
lfoot -0.217012 -5.86744
ltoes -11.7532
183
root 0.422827 17.7556 -4.79473 14.2801 -3.41833 -2.58686
lowerback 7.3254 3.07481 -5.43275
upperback 6.80029 3.76111 4.15614
thorax 2.36937 1.58878 7.20052
lowerneck -15.2498 0.698404 0.539349
upperneck 39.5187 3.84574 -7.04798
head 17.1942 0.717539 -2.56384
rclavicle -1.23246e-014 -1.43125e-014
rhumerus -6.43748 13.4899 -81.9275
rradius 31.0224
rwrist -11.9768
rhand -28.326 17.3944
rfingers 7.12502
rthumb -1.70078 -12.5786
lclavicle -1.23246e-014 -1.43125e-014
lhumerus -28.5829 -9.33991 92.9774
lradius 44.0635
lwrist 16.4705
lhand -23.4876 27.0087
lfingers 7.12502
lthumb 2.97217 56.9677
rfemur -22.1892 -9.26409 23.0181
rtibia 46.6098
rfoot -15.4841 -3.38257
rtoes -5.21868
lfemur -38.1422 5.11885 -14.3088
ltibia 25.1911
lfoot -0.0909637 -5.8867
ltoes -10.7041
184
root 0.470724 17.7456 -4.75682 14.3208 -3.72325 -2.30589
lowerback 7.69923 3.1191 -5.78847
upperback 6.93424 3.78517 4.02457
thorax 2.29116 1.58863 7.24798
lowerneck -15.2631 0.769042 0.620185
upperneck 39.3987 3.97163 -7.19226
head 17.1474 0.761119 -2.61615
rclavicle 4.13472e-014 -7.95139e-015
rhumerus -5.99612 13.6582 -82.0005
rradius 31.1845
rwrist -12.0854
rhand -28.4368 17.4547
rfingers 7.12502
rthumb -1.8078 -12.5174
lclavicle 4.13472e-014 -7.95139e-015
lhumerus -28.8851 -10.6383 93.3851
lradius 45.8383
lwrist 16.9971
lhand -23.9168 27.3924
lfingers 7.12502
lthumb 2.55773 57.3568
rfemur -23.4514 -9.98482 22.4741
rtibia 48.7555
rfoot -14.3732 -2.63358
rtoes -5.16554
lfemur -38.4057 5.42634 -15.0149
ltibia 25.7845
lfoot -0.21382 -5.96998
ltoes -9.78197
185
root 0.517485 17.7408 -4.72403 14.3892 -3.94109 -2.17491
lowerback 8.12055 3.17009 -5.92771
upperback 7.06521 3.82389 3.89316
thorax 2.19215 1.60461 7.16723
lowerneck -15.3697 0.818671 0.758347
upperneck 39.3242 4.04268 -7.31314
head 17.1463 0.792205 -2.68111
rclavicle 1.98785e-015 0
rhumerus -5.53432 13.8094 -82.0959
rradius 31.3747
rwrist -12.2631
rhand -28.4689 17.5017
rfingers 7.12502
rthumb -1.83875 -12.4701
lclavicle 1.98785e-015 0
lhumerus -29.1043 -12.0467 93.6935
lradius 47.6262
lwrist 17.6367
lhand -24.3305 27.0184
lfingers 7.12502
lthumb 2.1582 56.9872
rfemur -24.7865 -10.709 22.1615
rtibia 50.9035
rfoot -13.0827 -2.03212
rtoes -4.12791
lfemur -38.7683 5.83999 -15.6151
ltibia 26.4435
lfoot -0.508792 -6.11878
ltoes -9.57024
186
root 0.566334 17.7355 -4.69687 14.4953 -4.16365 -2.12009
lowerback 8.61538 3.26075 -5.93312
upperback 7.14612 3.91701 3.75164
thorax 1.99846 1.65815 6.98792
lowerneck -15.4398 0.832779 0.876232
upperneck 39.2699 4.0355 -7.35305
head 17.1372 0.800365 -2.72013
rclavicle 3.49861e-014 1.66979e-014
rhumerus -5.22317 13.944 -82.1871
rradius 31.6494
rwrist -12.4184
rhand -28.5527 17.5033
rfingers 7.12502
rthumb -1.91969 -12.4679
lclavicle 3.49861e-014 1.66979e-014
lhumerus -29.391 -13.3685 93.951
lradius 49.526
lwrist 18.0721
lhand -24.4462 26.4324
lfingers 7.12502
lthumb 2.04638 56.4023
rfemur -26.2026 -11.4632 21.9699
rtibia 53.0189
rfoot -11.8302 -1.53119
rtoes -2.52142
lfemur -39.1937 6.20501 -16.0983
ltibia 27.174
lfoot -0.821555 -6.10608
ltoes -9.60572
187
root 0.616521 17.7229 -4.67134 14.6526 -4.30349 -2.03329
lowerback 9.08971 3.29791 -5.94196
upperback 7.18475 3.93937 3.64234
thorax 1.78192 1.67748 6.8507
lowerneck -15.3515 0.842414 0.840577
upperneck 39.1199 4.05895 -7.38171
head 17.0338 0.803511 -2.71407
rclavicle -1.23246e-014 -1.35174e-014
rhumerus -4.93796 14.0603 -82.2631
rradius 31.8805
rwrist -12.4405
rhand -28.6505 17.4585
rfingers 7.12502
rthumb -2.01417 -12.5117
lclavicle -1.23246e-014 -1.35174e-014
lhumerus -29.7913 -14.4164 94.2129
lradius 51.5247
lwrist 18.2185
lhand -24.2215 25.9422
lfingers 7.12502
lthumb 2.26347 55.9099
rfemur -27.7162 -12.3355 21.8096
rtibia 55.0895
rfoot -10.662 -1.3247
rtoes -1.62015
lfemur -39.7178 6.33234 -16.5155
ltibia 27.9626
lfoot -1.09849 -5.89953
ltoes -9.34827
188
root 0.668009 17.7093 -4.64337 14.8062 -4.40195 -2.07777
lowerback 9.49705 3.32046 -5.82989
upperback 7.27198 3.95357 3.61167
thorax 1.65687 1.69028 6.73459
lowerneck -15.2998 0.842797 0.745278
upperneck 38.9469 4.09405 -7.42702
head 16.9288 0.800185 -2.70168
rclavicle -2.94201e-014 -1.59028e-015
rhumerus -4.58299 14.3088 -82.2593
rradius 32.1404
rwrist -12.5619
rhand -28.8482 17.4111
rfingers 7.12502
rthumb -2.20513 -12.5572
lclavicle -2.94201e-014 -1.59028e-015
lhumerus -30.139 -15.5622 94.5397
lradius 53.5576
lwrist 18.4798
lhand -24.1481 25.7229
lfingers 7.12502
lthumb 2.33436 55.6898
rfemur -29.1878 -13.1959 21.8234
rtibia 57.0794
rfoot -9.66717 -1.37257
rtoes -0.961497
lfemur -40.2471 6.40536 -16.7576
ltibia 28.7729
lfoot -1.43443 -5.67556
ltoes -9.35788
189
root 0.71574 17.6937 -4.61924 14.8503 -4.51287 -2.24149
lowerback 10.0723 3.40991 -5.57043
upperback 7.41716 4.05848 3.5618
thorax 1.4972 1.7531 6.4976
lowerneck -15.3889 0.814281 0.785057
upperneck 38.8011 4.04006 -7.45882
head 16.8699 0.779881 -2.7263
rclavicle 4.8901e-014 6.36111e-015
rhumerus -4.2365 14.4021 -82.2914
rradius 32.4936
rwrist -12.6452
rhand -29.1321 17.5079
rfingers 7.12502
rthumb -2.47925 -12.4574
lclavicle 4.8901e-014 6.36111e-015
lhumerus -30.3642 -16.987 94.8395
lradius 55.5118
lwrist 18.9333
lhand -24.357 25.312
lfingers 7.12502
lthumb 2.13254 55.2811
rfemur -30.5177 -14.034 22.0236
rtibia 58.9884
rfoot -9.05648 -1.53156
rtoes -0.886197
lfemur -40.6646 6.50653 -16.8185
ltibia 29.5983
lfoot -1.80195 -5.50453
ltoes -9.3493
